# xmcd
# 
# Track frame offsets:
#     150
#     16252
#     33040
#     49455
#     65122
#     80357
#     94677
#     106750
#     123282
#     141382
#     157607
#     171327
# 
# Disc length: 2512
# 
# Revision: 2
# Processed by: cddbd v1.5.2PL0 Copyright (c) Steve Scherf et al.
# Submitted via: BonkEnc v1.0.5
# 
DISCID=9309ce0c
DTITLE=西田佐知子 - 心にのこる愛唱歌 西田佐知子vol.1
DYEAR=0
DGENRE=Other
TTITLE0=アカシアの雨がやむとき
TTITLE1=エリカの花散るとき
TTITLE2=東京ブルース
TTITLE3=博多ブルース
TTITLE4=くれないホテル
TTITLE5=裏町酒場
TTITLE6=涙のかわくまで
TTITLE7=たそがれの恋
TTITLE8=女の意地
TTITLE9=赤坂の夜は更けて
TTITLE10=ウナ・セラ・ディ東京
TTITLE11=コーヒー・ルンバ
EXTD=
EXTT0=
EXTT1=
EXTT2=
EXTT3=
EXTT4=
EXTT5=
EXTT6=
EXTT7=
EXTT8=
EXTT9=
EXTT10=
EXTT11=
PLAYORDER=
